<?xml version='1.0' encoding='utf-8'?>
<svg width="262.20mm" height="395.30mm" viewBox="0.0 0.0 262.20 395.30" xmlns="http://www.w3.org/2000/svg" xmlns:dc="http://purl.org/dc/elements/1.1/" xmlns:cc="http://creativecommons.org/ns#" xmlns:rdf="http://www.w3.org/1999/02/22-rdf-syntax-ns#" xmlns:svg="http://www.w3.org/2000/svg" xmlns:xlink="http://www.w3.org/1999/xlink" xmlns:inkscape="http://www.inkscape.org/namespaces/inkscape">
<!--
ClosedBox - Fully closed box


This box is more of a building block than a finished item.
Use a vector graphics program (like Inkscape) to add holes or adjust the base
plate.

See BasedBox for variant with a base.


Created with Boxes.py (https://festi.info/boxes.py)
Creation date: 2023-04-13 11:56:42
Command line (remove spaces between dashes): boxes ClosedBox - -x=120 - -y=120 - -h=120
Url: http://festi.info/boxes.py/ClosedBox?FingerJoint_angle=90.0&FingerJoint_style=rectangular&FingerJoint_surroundingspaces=2.0&FingerJoint_bottom_lip=0.0&FingerJoint_edge_width=1.0&FingerJoint_extra_length=0.0&FingerJoint_finger=2.0&FingerJoint_play=0.0&FingerJoint_space=2.0&FingerJoint_width=1.0&x=120&y=120&h=120&outside=0&outside=1&thickness=3.0&format=svg&tabs=0.0&qr_code=0&debug=0&labels=0&labels=1&reference=100&inner_corners=loop&burn=0.1&language=de&render=1
Url short: http://festi.info/boxes.py/ClosedBox?x=120&y=120&h=120
SettingsUrl: http://festi.info/boxes.py/ClosedBox?FingerJoint_angle=90.0&FingerJoint_style=rectangular&FingerJoint_surroundingspaces=2.0&FingerJoint_bottom_lip=0.0&FingerJoint_edge_width=1.0&FingerJoint_extra_length=0.0&FingerJoint_finger=2.0&FingerJoint_play=0.0&FingerJoint_space=2.0&FingerJoint_width=1.0&x=120&y=120&h=120&outside=0&outside=1&thickness=3.0&format=svg&tabs=0.0&qr_code=0&debug=0&labels=0&labels=1&reference=100&inner_corners=loop&burn=0.1&language=de
SettingsUrl short: http://festi.info/boxes.py/ClosedBox?x=120&y=120&h=120
-->
<title>ClosedBox</title>
<metadata>
<rdf:RDF><cc:Work>
<dc:title>Box - ClosedBox</dc:title>
<dc:date>2023-04-13 11:56:42</dc:date>
<dc:source>http://festi.info/boxes.py/ClosedBox?FingerJoint_angle=90.0&amp;FingerJoint_style=rectangular&amp;FingerJoint_surroundingspaces=2.0&amp;FingerJoint_bottom_lip=0.0&amp;FingerJoint_edge_width=1.0&amp;FingerJoint_extra_length=0.0&amp;FingerJoint_finger=2.0&amp;FingerJoint_play=0.0&amp;FingerJoint_space=2.0&amp;FingerJoint_width=1.0&amp;x=120&amp;y=120&amp;h=120&amp;outside=0&amp;outside=1&amp;thickness=3.0&amp;format=svg&amp;tabs=0.0&amp;qr_code=0&amp;debug=0&amp;labels=0&amp;labels=1&amp;reference=100&amp;inner_corners=loop&amp;burn=0.1&amp;language=de&amp;render=1</dc:source>
<dc:source>http://festi.info/boxes.py/ClosedBox?x=120&amp;y=120&amp;h=120</dc:source>
<dc:description>Fully closed box

This box is more of a building block than a finished item.
Use a vector graphics program (like Inkscape) to add holes or adjust the base
plate.

See BasedBox for variant with a base.

Created with Boxes.py (https://festi.info/boxes.py)
Command line: boxes ClosedBox --FingerJoint_angle=90.0 --FingerJoint_style=rectangular --FingerJoint_surroundingspaces=2.0 --FingerJoint_bottom_lip=0.0 --FingerJoint_edge_width=1.0 --FingerJoint_extra_length=0.0 --FingerJoint_finger=2.0 --FingerJoint_play=0.0 --FingerJoint_space=2.0 --FingerJoint_width=1.0 --x=120 --y=120 --h=120 --outside=0 --outside=1 --thickness=3.0 --format=svg --tabs=0.0 --qr_code=0 --debug=0 --labels=0 --labels=1 --reference=100 --inner_corners=loop --burn=0.1
Command line short: boxes ClosedBox --x=120 --y=120 --h=120
Url: http://festi.info/boxes.py/ClosedBox?FingerJoint_angle=90.0&amp;FingerJoint_style=rectangular&amp;FingerJoint_surroundingspaces=2.0&amp;FingerJoint_bottom_lip=0.0&amp;FingerJoint_edge_width=1.0&amp;FingerJoint_extra_length=0.0&amp;FingerJoint_finger=2.0&amp;FingerJoint_play=0.0&amp;FingerJoint_space=2.0&amp;FingerJoint_width=1.0&amp;x=120&amp;y=120&amp;h=120&amp;outside=0&amp;outside=1&amp;thickness=3.0&amp;format=svg&amp;tabs=0.0&amp;qr_code=0&amp;debug=0&amp;labels=0&amp;labels=1&amp;reference=100&amp;inner_corners=loop&amp;burn=0.1&amp;language=de&amp;render=1
Url short: http://festi.info/boxes.py/ClosedBox?x=120&amp;y=120&amp;h=120
SettingsUrl: http://festi.info/boxes.py/ClosedBox?FingerJoint_angle=90.0&amp;FingerJoint_style=rectangular&amp;FingerJoint_surroundingspaces=2.0&amp;FingerJoint_bottom_lip=0.0&amp;FingerJoint_edge_width=1.0&amp;FingerJoint_extra_length=0.0&amp;FingerJoint_finger=2.0&amp;FingerJoint_play=0.0&amp;FingerJoint_space=2.0&amp;FingerJoint_width=1.0&amp;x=120&amp;y=120&amp;h=120&amp;outside=0&amp;outside=1&amp;thickness=3.0&amp;format=svg&amp;tabs=0.0&amp;qr_code=0&amp;debug=0&amp;labels=0&amp;labels=1&amp;reference=100&amp;inner_corners=loop&amp;burn=0.1&amp;language=de
SettingsUrl short: http://festi.info/boxes.py/ClosedBox?x=120&amp;y=120&amp;h=120
</dc:description>
</cc:Work></rdf:RDF></metadata>
<g id="p-0" style="fill:none;stroke-linecap:round;stroke-linejoin:round;">
  <path d="M 10.400 385.300 H 110.400 V 375.300 H 10.400 V 385.300 Z" stroke="rgb(0,0,0)" stroke-width="0.20" />
  <text transform="matrix( 1.000 0.000 0.000 1.000 60.400 376.300 )" style="font-family: sans-serif ; font-weight: normal; font-style: normal; fill: rgb(255,0,0)" font-size="8px" text-anchor="middle" dominant-baseline="hanging">100mm, burn:0.10mm</text>
</g>
<g id="p-1" style="fill:none;stroke-linecap:round;stroke-linejoin:round;">
  <text transform="matrix( 1.000 0.000 0.000 1.000 70.400 311.600 )" style="font-family: sans-serif ; font-weight: normal; font-style: normal; fill: rgb(255,0,0)" font-size="4px" text-anchor="middle" dominant-baseline="hanging">Wall 1</text><path d="M 13.400 373.600 H 19.400 C 19.455 373.600 19.500 373.555 19.500 373.500 V 370.600 C 19.500 370.500 19.400 370.600 19.500 370.600 H 25.300 C 25.400 370.600 25.300 370.500 25.300 370.600 V 373.500 C 25.300 373.555 25.345 373.600 25.400 373.600 H 31.400 C 31.455 373.600 31.500 373.555 31.500 373.500 V 370.600 C 31.500 370.500 31.400 370.600 31.500 370.600 H 37.300 C 37.400 370.600 37.300 370.500 37.300 370.600 V 373.500 C 37.300 373.555 37.345 373.600 37.400 373.600 H 43.400 C 43.455 373.600 43.500 373.555 43.500 373.500 V 370.600 C 43.500 370.500 43.400 370.600 43.500 370.600 H 49.300 C 49.400 370.600 49.300 370.500 49.300 370.600 V 373.500 C 49.300 373.555 49.345 373.600 49.400 373.600 H 55.400 C 55.455 373.600 55.500 373.555 55.500 373.500 V 370.600 C 55.500 370.500 55.400 370.600 55.500 370.600 H 61.300 C 61.400 370.600 61.300 370.500 61.300 370.600 V 373.500 C 61.300 373.555 61.345 373.600 61.400 373.600 H 67.400 C 67.455 373.600 67.500 373.555 67.500 373.500 V 370.600 C 67.500 370.500 67.400 370.600 67.500 370.600 H 73.300 C 73.400 370.600 73.300 370.500 73.300 370.600 V 373.500 C 73.300 373.555 73.345 373.600 73.400 373.600 H 79.400 C 79.455 373.600 79.500 373.555 79.500 373.500 V 370.600 C 79.500 370.500 79.400 370.600 79.500 370.600 H 85.300 C 85.400 370.600 85.300 370.500 85.300 370.600 V 373.500 C 85.300 373.555 85.345 373.600 85.400 373.600 H 91.400 C 91.455 373.600 91.500 373.555 91.500 373.500 V 370.600 C 91.500 370.500 91.400 370.600 91.500 370.600 H 97.300 C 97.400 370.600 97.300 370.500 97.300 370.600 V 373.500 C 97.300 373.555 97.345 373.600 97.400 373.600 H 103.400 C 103.455 373.600 103.500 373.555 103.500 373.500 V 370.600 C 103.500 370.500 103.400 370.600 103.500 370.600 H 109.300 C 109.400 370.600 109.300 370.500 109.300 370.600 V 373.500 C 109.300 373.555 109.345 373.600 109.400 373.600 H 115.400 C 115.455 373.600 115.500 373.555 115.500 373.500 V 370.600 C 115.500 370.500 115.400 370.600 115.500 370.600 H 121.300 C 121.400 370.600 121.300 370.500 121.300 370.600 V 373.500 C 121.300 373.555 121.345 373.600 121.400 373.600 H 127.400 H 130.400 C 130.455 373.600 130.500 373.555 130.500 373.500 V 370.500 V 364.500 C 130.500 364.445 130.455 364.400 130.400 364.400 H 127.500 C 127.400 364.400 127.500 364.500 127.500 364.400 V 358.600 C 127.500 358.500 127.400 358.600 127.500 358.600 H 130.400 C 130.455 358.600 130.500 358.555 130.500 358.500 V 352.500 C 130.500 352.445 130.455 352.400 130.400 352.400 H 127.500 C 127.400 352.400 127.500 352.500 127.500 352.400 V 346.600 C 127.500 346.500 127.400 346.600 127.500 346.600 H 130.400 C 130.455 346.600 130.500 346.555 130.500 346.500 V 340.500 C 130.500 340.445 130.455 340.400 130.400 340.400 H 127.500 C 127.400 340.400 127.500 340.500 127.500 340.400 V 334.600 C 127.500 334.500 127.400 334.600 127.500 334.600 H 130.400 C 130.455 334.600 130.500 334.555 130.500 334.500 V 328.500 C 130.500 328.445 130.455 328.400 130.400 328.400 H 127.500 C 127.400 328.400 127.500 328.500 127.500 328.400 V 322.600 C 127.500 322.500 127.400 322.600 127.500 322.600 H 130.400 C 130.455 322.600 130.500 322.555 130.500 322.500 V 316.500 C 130.500 316.445 130.455 316.400 130.400 316.400 H 127.500 C 127.400 316.400 127.500 316.500 127.500 316.400 V 310.600 C 127.500 310.500 127.400 310.600 127.500 310.600 H 130.400 C 130.455 310.600 130.500 310.555 130.500 310.500 V 304.500 C 130.500 304.445 130.455 304.400 130.400 304.400 H 127.500 C 127.400 304.400 127.500 304.500 127.500 304.400 V 298.600 C 127.500 298.500 127.400 298.600 127.500 298.600 H 130.400 C 130.455 298.600 130.500 298.555 130.500 298.500 V 292.500 C 130.500 292.445 130.455 292.400 130.400 292.400 H 127.500 C 127.400 292.400 127.500 292.500 127.500 292.400 V 286.600 C 127.500 286.500 127.400 286.600 127.500 286.600 H 130.400 C 130.455 286.600 130.500 286.555 130.500 286.500 V 280.500 C 130.500 280.445 130.455 280.400 130.400 280.400 H 127.500 C 127.400 280.400 127.500 280.500 127.500 280.400 V 274.600 C 127.500 274.500 127.400 274.600 127.500 274.600 H 130.400 C 130.455 274.600 130.500 274.555 130.500 274.500 V 268.500 C 130.500 268.445 130.455 268.400 130.400 268.400 H 127.500 C 127.400 268.400 127.500 268.500 127.500 268.400 V 262.600 C 127.500 262.500 127.400 262.600 127.500 262.600 H 130.400 C 130.455 262.600 130.500 262.555 130.500 262.500 V 256.500 V 253.500 C 130.500 253.445 130.455 253.400 130.400 253.400 H 127.400 H 121.400 C 121.345 253.400 121.300 253.445 121.300 253.500 V 256.400 C 121.300 256.500 121.400 256.400 121.300 256.400 H 115.500 C 115.400 256.400 115.500 256.500 115.500 256.400 V 253.500 C 115.500 253.445 115.455 253.400 115.400 253.400 H 109.400 C 109.345 253.400 109.300 253.445 109.300 253.500 V 256.400 C 109.300 256.500 109.400 256.400 109.300 256.400 H 103.500 C 103.400 256.400 103.500 256.500 103.500 256.400 V 253.500 C 103.500 253.445 103.455 253.400 103.400 253.400 H 97.400 C 97.345 253.400 97.300 253.445 97.300 253.500 V 256.400 C 97.300 256.500 97.400 256.400 97.300 256.400 H 91.500 C 91.400 256.400 91.500 256.500 91.500 256.400 V 253.500 C 91.500 253.445 91.455 253.400 91.400 253.400 H 85.400 C 85.345 253.400 85.300 253.445 85.300 253.500 V 256.400 C 85.300 256.500 85.400 256.400 85.300 256.400 H 79.500 C 79.400 256.400 79.500 256.500 79.500 256.400 V 253.500 C 79.500 253.445 79.455 253.400 79.400 253.400 H 73.400 C 73.345 253.400 73.300 253.445 73.300 253.500 V 256.400 C 73.300 256.500 73.400 256.400 73.300 256.400 H 67.500 C 67.400 256.400 67.500 256.500 67.500 256.400 V 253.500 C 67.500 253.445 67.455 253.400 67.400 253.400 H 61.400 C 61.345 253.400 61.300 253.445 61.300 253.500 V 256.400 C 61.300 256.500 61.400 256.400 61.300 256.400 H 55.500 C 55.400 256.400 55.500 256.500 55.500 256.400 V 253.500 C 55.500 253.445 55.455 253.400 55.400 253.400 H 49.400 C 49.345 253.400 49.300 253.445 49.300 253.500 V 256.400 C 49.300 256.500 49.400 256.400 49.300 256.400 H 43.500 C 43.400 256.400 43.500 256.500 43.500 256.400 V 253.500 C 43.500 253.445 43.455 253.400 43.400 253.400 H 37.400 C 37.345 253.400 37.300 253.445 37.300 253.500 V 256.400 C 37.300 256.500 37.400 256.400 37.300 256.400 H 31.500 C 31.400 256.400 31.500 256.500 31.500 256.400 V 253.500 C 31.500 253.445 31.455 253.400 31.400 253.400 H 25.400 C 25.345 253.400 25.300 253.445 25.300 253.500 V 256.400 C 25.300 256.500 25.400 256.400 25.300 256.400 H 19.500 C 19.400 256.400 19.500 256.500 19.500 256.400 V 253.500 C 19.500 253.445 19.455 253.400 19.400 253.400 H 13.400 H 10.400 C 10.345 253.400 10.300 253.445 10.300 253.500 V 256.500 V 262.500 C 10.300 262.555 10.345 262.600 10.400 262.600 H 13.300 C 13.400 262.600 13.300 262.500 13.300 262.600 V 268.400 C 13.300 268.500 13.400 268.400 13.300 268.400 H 10.400 C 10.345 268.400 10.300 268.445 10.300 268.500 V 274.500 C 10.300 274.555 10.345 274.600 10.400 274.600 H 13.300 C 13.400 274.600 13.300 274.500 13.300 274.600 V 280.400 C 13.300 280.500 13.400 280.400 13.300 280.400 H 10.400 C 10.345 280.400 10.300 280.445 10.300 280.500 V 286.500 C 10.300 286.555 10.345 286.600 10.400 286.600 H 13.300 C 13.400 286.600 13.300 286.500 13.300 286.600 V 292.400 C 13.300 292.500 13.400 292.400 13.300 292.400 H 10.400 C 10.345 292.400 10.300 292.445 10.300 292.500 V 298.500 C 10.300 298.555 10.345 298.600 10.400 298.600 H 13.300 C 13.400 298.600 13.300 298.500 13.300 298.600 V 304.400 C 13.300 304.500 13.400 304.400 13.300 304.400 H 10.400 C 10.345 304.400 10.300 304.445 10.300 304.500 V 310.500 C 10.300 310.555 10.345 310.600 10.400 310.600 H 13.300 C 13.400 310.600 13.300 310.500 13.300 310.600 V 316.400 C 13.300 316.500 13.400 316.400 13.300 316.400 H 10.400 C 10.345 316.400 10.300 316.445 10.300 316.500 V 322.500 C 10.300 322.555 10.345 322.600 10.400 322.600 H 13.300 C 13.400 322.600 13.300 322.500 13.300 322.600 V 328.400 C 13.300 328.500 13.400 328.400 13.300 328.400 H 10.400 C 10.345 328.400 10.300 328.445 10.300 328.500 V 334.500 C 10.300 334.555 10.345 334.600 10.400 334.600 H 13.300 C 13.400 334.600 13.300 334.500 13.300 334.600 V 340.400 C 13.300 340.500 13.400 340.400 13.300 340.400 H 10.400 C 10.345 340.400 10.300 340.445 10.300 340.500 V 346.500 C 10.300 346.555 10.345 346.600 10.400 346.600 H 13.300 C 13.400 346.600 13.300 346.500 13.300 346.600 V 352.400 C 13.300 352.500 13.400 352.400 13.300 352.400 H 10.400 C 10.345 352.400 10.300 352.445 10.300 352.500 V 358.500 C 10.300 358.555 10.345 358.600 10.400 358.600 H 13.300 C 13.400 358.600 13.300 358.500 13.300 358.600 V 364.400 C 13.300 364.500 13.400 364.400 13.300 364.400 H 10.400 C 10.345 364.400 10.300 364.445 10.300 364.500 V 370.500 V 373.500 C 10.300 373.555 10.345 373.600 10.400 373.600 H 13.400" stroke="rgb(0,0,0)" stroke-width="0.20" />
</g>
<g id="p-2" style="fill:none;stroke-linecap:round;stroke-linejoin:round;">
  <text transform="matrix( 1.000 0.000 0.000 1.000 192.100 311.600 )" style="font-family: sans-serif ; font-weight: normal; font-style: normal; fill: rgb(255,0,0)" font-size="4px" text-anchor="middle" dominant-baseline="hanging">Wall 2</text><path d="M 135.100 373.600 H 141.100 C 141.155 373.600 141.200 373.555 141.200 373.500 V 370.600 C 141.200 370.500 141.100 370.600 141.200 370.600 H 147.000 C 147.100 370.600 147.000 370.500 147.000 370.600 V 373.500 C 147.000 373.555 147.045 373.600 147.100 373.600 H 153.100 C 153.155 373.600 153.200 373.555 153.200 373.500 V 370.600 C 153.200 370.500 153.100 370.600 153.200 370.600 H 159.000 C 159.100 370.600 159.000 370.500 159.000 370.600 V 373.500 C 159.000 373.555 159.045 373.600 159.100 373.600 H 165.100 C 165.155 373.600 165.200 373.555 165.200 373.500 V 370.600 C 165.200 370.500 165.100 370.600 165.200 370.600 H 171.000 C 171.100 370.600 171.000 370.500 171.000 370.600 V 373.500 C 171.000 373.555 171.045 373.600 171.100 373.600 H 177.100 C 177.155 373.600 177.200 373.555 177.200 373.500 V 370.600 C 177.200 370.500 177.100 370.600 177.200 370.600 H 183.000 C 183.100 370.600 183.000 370.500 183.000 370.600 V 373.500 C 183.000 373.555 183.045 373.600 183.100 373.600 H 189.100 C 189.155 373.600 189.200 373.555 189.200 373.500 V 370.600 C 189.200 370.500 189.100 370.600 189.200 370.600 H 195.000 C 195.100 370.600 195.000 370.500 195.000 370.600 V 373.500 C 195.000 373.555 195.045 373.600 195.100 373.600 H 201.100 C 201.155 373.600 201.200 373.555 201.200 373.500 V 370.600 C 201.200 370.500 201.100 370.600 201.200 370.600 H 207.000 C 207.100 370.600 207.000 370.500 207.000 370.600 V 373.500 C 207.000 373.555 207.045 373.600 207.100 373.600 H 213.100 C 213.155 373.600 213.200 373.555 213.200 373.500 V 370.600 C 213.200 370.500 213.100 370.600 213.200 370.600 H 219.000 C 219.100 370.600 219.000 370.500 219.000 370.600 V 373.500 C 219.000 373.555 219.045 373.600 219.100 373.600 H 225.100 C 225.155 373.600 225.200 373.555 225.200 373.500 V 370.600 C 225.200 370.500 225.100 370.600 225.200 370.600 H 231.000 C 231.100 370.600 231.000 370.500 231.000 370.600 V 373.500 C 231.000 373.555 231.045 373.600 231.100 373.600 H 237.100 C 237.155 373.600 237.200 373.555 237.200 373.500 V 370.600 C 237.200 370.500 237.100 370.600 237.200 370.600 H 243.000 C 243.100 370.600 243.000 370.500 243.000 370.600 V 373.500 C 243.000 373.555 243.045 373.600 243.100 373.600 H 249.100 C 249.155 373.600 249.200 373.555 249.200 373.500 V 370.500 V 364.600 C 249.200 364.500 249.100 364.600 249.200 364.600 H 252.100 C 252.155 364.600 252.200 364.555 252.200 364.500 V 358.500 C 252.200 358.445 252.155 358.400 252.100 358.400 H 249.200 C 249.100 358.400 249.200 358.500 249.200 358.400 V 352.600 C 249.200 352.500 249.100 352.600 249.200 352.600 H 252.100 C 252.155 352.600 252.200 352.555 252.200 352.500 V 346.500 C 252.200 346.445 252.155 346.400 252.100 346.400 H 249.200 C 249.100 346.400 249.200 346.500 249.200 346.400 V 340.600 C 249.200 340.500 249.100 340.600 249.200 340.600 H 252.100 C 252.155 340.600 252.200 340.555 252.200 340.500 V 334.500 C 252.200 334.445 252.155 334.400 252.100 334.400 H 249.200 C 249.100 334.400 249.200 334.500 249.200 334.400 V 328.600 C 249.200 328.500 249.100 328.600 249.200 328.600 H 252.100 C 252.155 328.600 252.200 328.555 252.200 328.500 V 322.500 C 252.200 322.445 252.155 322.400 252.100 322.400 H 249.200 C 249.100 322.400 249.200 322.500 249.200 322.400 V 316.600 C 249.200 316.500 249.100 316.600 249.200 316.600 H 252.100 C 252.155 316.600 252.200 316.555 252.200 316.500 V 310.500 C 252.200 310.445 252.155 310.400 252.100 310.400 H 249.200 C 249.100 310.400 249.200 310.500 249.200 310.400 V 304.600 C 249.200 304.500 249.100 304.600 249.200 304.600 H 252.100 C 252.155 304.600 252.200 304.555 252.200 304.500 V 298.500 C 252.200 298.445 252.155 298.400 252.100 298.400 H 249.200 C 249.100 298.400 249.200 298.500 249.200 298.400 V 292.600 C 249.200 292.500 249.100 292.600 249.200 292.600 H 252.100 C 252.155 292.600 252.200 292.555 252.200 292.500 V 286.500 C 252.200 286.445 252.155 286.400 252.100 286.400 H 249.200 C 249.100 286.400 249.200 286.500 249.200 286.400 V 280.600 C 249.200 280.500 249.100 280.600 249.200 280.600 H 252.100 C 252.155 280.600 252.200 280.555 252.200 280.500 V 274.500 C 252.200 274.445 252.155 274.400 252.100 274.400 H 249.200 C 249.100 274.400 249.200 274.500 249.200 274.400 V 268.600 C 249.200 268.500 249.100 268.600 249.200 268.600 H 252.100 C 252.155 268.600 252.200 268.555 252.200 268.500 V 262.500 C 252.200 262.445 252.155 262.400 252.100 262.400 H 249.200 C 249.100 262.400 249.200 262.500 249.200 262.400 V 256.500 V 253.500 C 249.200 253.445 249.155 253.400 249.100 253.400 H 243.100 C 243.045 253.400 243.000 253.445 243.000 253.500 V 256.400 C 243.000 256.500 243.100 256.400 243.000 256.400 H 237.200 C 237.100 256.400 237.200 256.500 237.200 256.400 V 253.500 C 237.200 253.445 237.155 253.400 237.100 253.400 H 231.100 C 231.045 253.400 231.000 253.445 231.000 253.500 V 256.400 C 231.000 256.500 231.100 256.400 231.000 256.400 H 225.200 C 225.100 256.400 225.200 256.500 225.200 256.400 V 253.500 C 225.200 253.445 225.155 253.400 225.100 253.400 H 219.100 C 219.045 253.400 219.000 253.445 219.000 253.500 V 256.400 C 219.000 256.500 219.100 256.400 219.000 256.400 H 213.200 C 213.100 256.400 213.200 256.500 213.200 256.400 V 253.500 C 213.200 253.445 213.155 253.400 213.100 253.400 H 207.100 C 207.045 253.400 207.000 253.445 207.000 253.500 V 256.400 C 207.000 256.500 207.100 256.400 207.000 256.400 H 201.200 C 201.100 256.400 201.200 256.500 201.200 256.400 V 253.500 C 201.200 253.445 201.155 253.400 201.100 253.400 H 195.100 C 195.045 253.400 195.000 253.445 195.000 253.500 V 256.400 C 195.000 256.500 195.100 256.400 195.000 256.400 H 189.200 C 189.100 256.400 189.200 256.500 189.200 256.400 V 253.500 C 189.200 253.445 189.155 253.400 189.100 253.400 H 183.100 C 183.045 253.400 183.000 253.445 183.000 253.500 V 256.400 C 183.000 256.500 183.100 256.400 183.000 256.400 H 177.200 C 177.100 256.400 177.200 256.500 177.200 256.400 V 253.500 C 177.200 253.445 177.155 253.400 177.100 253.400 H 171.100 C 171.045 253.400 171.000 253.445 171.000 253.500 V 256.400 C 171.000 256.500 171.100 256.400 171.000 256.400 H 165.200 C 165.100 256.400 165.200 256.500 165.200 256.400 V 253.500 C 165.200 253.445 165.155 253.400 165.100 253.400 H 159.100 C 159.045 253.400 159.000 253.445 159.000 253.500 V 256.400 C 159.000 256.500 159.100 256.400 159.000 256.400 H 153.200 C 153.100 256.400 153.200 256.500 153.200 256.400 V 253.500 C 153.200 253.445 153.155 253.400 153.100 253.400 H 147.100 C 147.045 253.400 147.000 253.445 147.000 253.500 V 256.400 C 147.000 256.500 147.100 256.400 147.000 256.400 H 141.200 C 141.100 256.400 141.200 256.500 141.200 256.400 V 253.500 C 141.200 253.445 141.155 253.400 141.100 253.400 H 135.100 C 135.045 253.400 135.000 253.445 135.000 253.500 V 256.500 V 262.400 C 135.000 262.500 135.100 262.400 135.000 262.400 H 132.100 C 132.045 262.400 132.000 262.445 132.000 262.500 V 268.500 C 132.000 268.555 132.045 268.600 132.100 268.600 H 135.000 C 135.100 268.600 135.000 268.500 135.000 268.600 V 274.400 C 135.000 274.500 135.100 274.400 135.000 274.400 H 132.100 C 132.045 274.400 132.000 274.445 132.000 274.500 V 280.500 C 132.000 280.555 132.045 280.600 132.100 280.600 H 135.000 C 135.100 280.600 135.000 280.500 135.000 280.600 V 286.400 C 135.000 286.500 135.100 286.400 135.000 286.400 H 132.100 C 132.045 286.400 132.000 286.445 132.000 286.500 V 292.500 C 132.000 292.555 132.045 292.600 132.100 292.600 H 135.000 C 135.100 292.600 135.000 292.500 135.000 292.600 V 298.400 C 135.000 298.500 135.100 298.400 135.000 298.400 H 132.100 C 132.045 298.400 132.000 298.445 132.000 298.500 V 304.500 C 132.000 304.555 132.045 304.600 132.100 304.600 H 135.000 C 135.100 304.600 135.000 304.500 135.000 304.600 V 310.400 C 135.000 310.500 135.100 310.400 135.000 310.400 H 132.100 C 132.045 310.400 132.000 310.445 132.000 310.500 V 316.500 C 132.000 316.555 132.045 316.600 132.100 316.600 H 135.000 C 135.100 316.600 135.000 316.500 135.000 316.600 V 322.400 C 135.000 322.500 135.100 322.400 135.000 322.400 H 132.100 C 132.045 322.400 132.000 322.445 132.000 322.500 V 328.500 C 132.000 328.555 132.045 328.600 132.100 328.600 H 135.000 C 135.100 328.600 135.000 328.500 135.000 328.600 V 334.400 C 135.000 334.500 135.100 334.400 135.000 334.400 H 132.100 C 132.045 334.400 132.000 334.445 132.000 334.500 V 340.500 C 132.000 340.555 132.045 340.600 132.100 340.600 H 135.000 C 135.100 340.600 135.000 340.500 135.000 340.600 V 346.400 C 135.000 346.500 135.100 346.400 135.000 346.400 H 132.100 C 132.045 346.400 132.000 346.445 132.000 346.500 V 352.500 C 132.000 352.555 132.045 352.600 132.100 352.600 H 135.000 C 135.100 352.600 135.000 352.500 135.000 352.600 V 358.400 C 135.000 358.500 135.100 358.400 135.000 358.400 H 132.100 C 132.045 358.400 132.000 358.445 132.000 358.500 V 364.500 C 132.000 364.555 132.045 364.600 132.100 364.600 H 135.000 C 135.100 364.600 135.000 364.500 135.000 364.600 V 370.500 V 373.500 C 135.000 373.555 135.045 373.600 135.100 373.600" stroke="rgb(0,0,0)" stroke-width="0.20" />
</g>
<g id="p-3" style="fill:none;stroke-linecap:round;stroke-linejoin:round;">
  <text transform="matrix( 1.000 0.000 0.000 1.000 192.100 189.900 )" style="font-family: sans-serif ; font-weight: normal; font-style: normal; fill: rgb(255,0,0)" font-size="4px" text-anchor="middle" dominant-baseline="hanging">Wall 4</text><path d="M 135.100 251.900 H 141.100 C 141.155 251.900 141.200 251.855 141.200 251.800 V 248.900 C 141.200 248.800 141.100 248.900 141.200 248.900 H 147.000 C 147.100 248.900 147.000 248.800 147.000 248.900 V 251.800 C 147.000 251.855 147.045 251.900 147.100 251.900 H 153.100 C 153.155 251.900 153.200 251.855 153.200 251.800 V 248.900 C 153.200 248.800 153.100 248.900 153.200 248.900 H 159.000 C 159.100 248.900 159.000 248.800 159.000 248.900 V 251.800 C 159.000 251.855 159.045 251.900 159.100 251.900 H 165.100 C 165.155 251.900 165.200 251.855 165.200 251.800 V 248.900 C 165.200 248.800 165.100 248.900 165.200 248.900 H 171.000 C 171.100 248.900 171.000 248.800 171.000 248.900 V 251.800 C 171.000 251.855 171.045 251.900 171.100 251.900 H 177.100 C 177.155 251.900 177.200 251.855 177.200 251.800 V 248.900 C 177.200 248.800 177.100 248.900 177.200 248.900 H 183.000 C 183.100 248.900 183.000 248.800 183.000 248.900 V 251.800 C 183.000 251.855 183.045 251.900 183.100 251.900 H 189.100 C 189.155 251.900 189.200 251.855 189.200 251.800 V 248.900 C 189.200 248.800 189.100 248.900 189.200 248.900 H 195.000 C 195.100 248.900 195.000 248.800 195.000 248.900 V 251.800 C 195.000 251.855 195.045 251.900 195.100 251.900 H 201.100 C 201.155 251.900 201.200 251.855 201.200 251.800 V 248.900 C 201.200 248.800 201.100 248.900 201.200 248.900 H 207.000 C 207.100 248.900 207.000 248.800 207.000 248.900 V 251.800 C 207.000 251.855 207.045 251.900 207.100 251.900 H 213.100 C 213.155 251.900 213.200 251.855 213.200 251.800 V 248.900 C 213.200 248.800 213.100 248.900 213.200 248.900 H 219.000 C 219.100 248.900 219.000 248.800 219.000 248.900 V 251.800 C 219.000 251.855 219.045 251.900 219.100 251.900 H 225.100 C 225.155 251.900 225.200 251.855 225.200 251.800 V 248.900 C 225.200 248.800 225.100 248.900 225.200 248.900 H 231.000 C 231.100 248.900 231.000 248.800 231.000 248.900 V 251.800 C 231.000 251.855 231.045 251.900 231.100 251.900 H 237.100 C 237.155 251.900 237.200 251.855 237.200 251.800 V 248.900 C 237.200 248.800 237.100 248.900 237.200 248.900 H 243.000 C 243.100 248.900 243.000 248.800 243.000 248.900 V 251.800 C 243.000 251.855 243.045 251.900 243.100 251.900 H 249.100 C 249.155 251.900 249.200 251.855 249.200 251.800 V 248.800 V 242.900 C 249.200 242.800 249.100 242.900 249.200 242.900 H 252.100 C 252.155 242.900 252.200 242.855 252.200 242.800 V 236.800 C 252.200 236.745 252.155 236.700 252.100 236.700 H 249.200 C 249.100 236.700 249.200 236.800 249.200 236.700 V 230.900 C 249.200 230.800 249.100 230.900 249.200 230.900 H 252.100 C 252.155 230.900 252.200 230.855 252.200 230.800 V 224.800 C 252.200 224.745 252.155 224.700 252.100 224.700 H 249.200 C 249.100 224.700 249.200 224.800 249.200 224.700 V 218.900 C 249.200 218.800 249.100 218.900 249.200 218.900 H 252.100 C 252.155 218.900 252.200 218.855 252.200 218.800 V 212.800 C 252.200 212.745 252.155 212.700 252.100 212.700 H 249.200 C 249.100 212.700 249.200 212.800 249.200 212.700 V 206.900 C 249.200 206.800 249.100 206.900 249.200 206.900 H 252.100 C 252.155 206.900 252.200 206.855 252.200 206.800 V 200.800 C 252.200 200.745 252.155 200.700 252.100 200.700 H 249.200 C 249.100 200.700 249.200 200.800 249.200 200.700 V 194.900 C 249.200 194.800 249.100 194.900 249.200 194.900 H 252.100 C 252.155 194.900 252.200 194.855 252.200 194.800 V 188.800 C 252.200 188.745 252.155 188.700 252.100 188.700 H 249.200 C 249.100 188.700 249.200 188.800 249.200 188.700 V 182.900 C 249.200 182.800 249.100 182.900 249.200 182.900 H 252.100 C 252.155 182.900 252.200 182.855 252.200 182.800 V 176.800 C 252.200 176.745 252.155 176.700 252.100 176.700 H 249.200 C 249.100 176.700 249.200 176.800 249.200 176.700 V 170.900 C 249.200 170.800 249.100 170.900 249.200 170.900 H 252.100 C 252.155 170.900 252.200 170.855 252.200 170.800 V 164.800 C 252.200 164.745 252.155 164.700 252.100 164.700 H 249.200 C 249.100 164.700 249.200 164.800 249.200 164.700 V 158.900 C 249.200 158.800 249.100 158.900 249.200 158.900 H 252.100 C 252.155 158.900 252.200 158.855 252.200 158.800 V 152.800 C 252.200 152.745 252.155 152.700 252.100 152.700 H 249.200 C 249.100 152.700 249.200 152.800 249.200 152.700 V 146.900 C 249.200 146.800 249.100 146.900 249.200 146.900 H 252.100 C 252.155 146.900 252.200 146.855 252.200 146.800 V 140.800 C 252.200 140.745 252.155 140.700 252.100 140.700 H 249.200 C 249.100 140.700 249.200 140.800 249.200 140.700 V 134.800 V 131.800 C 249.200 131.745 249.155 131.700 249.100 131.700 H 243.100 C 243.045 131.700 243.000 131.745 243.000 131.800 V 134.700 C 243.000 134.800 243.100 134.700 243.000 134.700 H 237.200 C 237.100 134.700 237.200 134.800 237.200 134.700 V 131.800 C 237.200 131.745 237.155 131.700 237.100 131.700 H 231.100 C 231.045 131.700 231.000 131.745 231.000 131.800 V 134.700 C 231.000 134.800 231.100 134.700 231.000 134.700 H 225.200 C 225.100 134.700 225.200 134.800 225.200 134.700 V 131.800 C 225.200 131.745 225.155 131.700 225.100 131.700 H 219.100 C 219.045 131.700 219.000 131.745 219.000 131.800 V 134.700 C 219.000 134.800 219.100 134.700 219.000 134.700 H 213.200 C 213.100 134.700 213.200 134.800 213.200 134.700 V 131.800 C 213.200 131.745 213.155 131.700 213.100 131.700 H 207.100 C 207.045 131.700 207.000 131.745 207.000 131.800 V 134.700 C 207.000 134.800 207.100 134.700 207.000 134.700 H 201.200 C 201.100 134.700 201.200 134.800 201.200 134.700 V 131.800 C 201.200 131.745 201.155 131.700 201.100 131.700 H 195.100 C 195.045 131.700 195.000 131.745 195.000 131.800 V 134.700 C 195.000 134.800 195.100 134.700 195.000 134.700 H 189.200 C 189.100 134.700 189.200 134.800 189.200 134.700 V 131.800 C 189.200 131.745 189.155 131.700 189.100 131.700 H 183.100 C 183.045 131.700 183.000 131.745 183.000 131.800 V 134.700 C 183.000 134.800 183.100 134.700 183.000 134.700 H 177.200 C 177.100 134.700 177.200 134.800 177.200 134.700 V 131.800 C 177.200 131.745 177.155 131.700 177.100 131.700 H 171.100 C 171.045 131.700 171.000 131.745 171.000 131.800 V 134.700 C 171.000 134.800 171.100 134.700 171.000 134.700 H 165.200 C 165.100 134.700 165.200 134.800 165.200 134.700 V 131.800 C 165.200 131.745 165.155 131.700 165.100 131.700 H 159.100 C 159.045 131.700 159.000 131.745 159.000 131.800 V 134.700 C 159.000 134.800 159.100 134.700 159.000 134.700 H 153.200 C 153.100 134.700 153.200 134.800 153.200 134.700 V 131.800 C 153.200 131.745 153.155 131.700 153.100 131.700 H 147.100 C 147.045 131.700 147.000 131.745 147.000 131.800 V 134.700 C 147.000 134.800 147.100 134.700 147.000 134.700 H 141.200 C 141.100 134.700 141.200 134.800 141.200 134.700 V 131.800 C 141.200 131.745 141.155 131.700 141.100 131.700 H 135.100 C 135.045 131.700 135.000 131.745 135.000 131.800 V 134.800 V 140.700 C 135.000 140.800 135.100 140.700 135.000 140.700 H 132.100 C 132.045 140.700 132.000 140.745 132.000 140.800 V 146.800 C 132.000 146.855 132.045 146.900 132.100 146.900 H 135.000 C 135.100 146.900 135.000 146.800 135.000 146.900 V 152.700 C 135.000 152.800 135.100 152.700 135.000 152.700 H 132.100 C 132.045 152.700 132.000 152.745 132.000 152.800 V 158.800 C 132.000 158.855 132.045 158.900 132.100 158.900 H 135.000 C 135.100 158.900 135.000 158.800 135.000 158.900 V 164.700 C 135.000 164.800 135.100 164.700 135.000 164.700 H 132.100 C 132.045 164.700 132.000 164.745 132.000 164.800 V 170.800 C 132.000 170.855 132.045 170.900 132.100 170.900 H 135.000 C 135.100 170.900 135.000 170.800 135.000 170.900 V 176.700 C 135.000 176.800 135.100 176.700 135.000 176.700 H 132.100 C 132.045 176.700 132.000 176.745 132.000 176.800 V 182.800 C 132.000 182.855 132.045 182.900 132.100 182.900 H 135.000 C 135.100 182.900 135.000 182.800 135.000 182.900 V 188.700 C 135.000 188.800 135.100 188.700 135.000 188.700 H 132.100 C 132.045 188.700 132.000 188.745 132.000 188.800 V 194.800 C 132.000 194.855 132.045 194.900 132.100 194.900 H 135.000 C 135.100 194.900 135.000 194.800 135.000 194.900 V 200.700 C 135.000 200.800 135.100 200.700 135.000 200.700 H 132.100 C 132.045 200.700 132.000 200.745 132.000 200.800 V 206.800 C 132.000 206.855 132.045 206.900 132.100 206.900 H 135.000 C 135.100 206.900 135.000 206.800 135.000 206.900 V 212.700 C 135.000 212.800 135.100 212.700 135.000 212.700 H 132.100 C 132.045 212.700 132.000 212.745 132.000 212.800 V 218.800 C 132.000 218.855 132.045 218.900 132.100 218.900 H 135.000 C 135.100 218.900 135.000 218.800 135.000 218.900 V 224.700 C 135.000 224.800 135.100 224.700 135.000 224.700 H 132.100 C 132.045 224.700 132.000 224.745 132.000 224.800 V 230.800 C 132.000 230.855 132.045 230.900 132.100 230.900 H 135.000 C 135.100 230.900 135.000 230.800 135.000 230.900 V 236.700 C 135.000 236.800 135.100 236.700 135.000 236.700 H 132.100 C 132.045 236.700 132.000 236.745 132.000 236.800 V 242.800 C 132.000 242.855 132.045 242.900 132.100 242.900 H 135.000 C 135.100 242.900 135.000 242.800 135.000 242.900 V 248.800 V 251.800 C 135.000 251.855 135.045 251.900 135.100 251.900" stroke="rgb(0,0,0)" stroke-width="0.20" />
</g>
<g id="p-4" style="fill:none;stroke-linecap:round;stroke-linejoin:round;">
  <text transform="matrix( 1.000 0.000 0.000 1.000 70.400 189.900 )" style="font-family: sans-serif ; font-weight: normal; font-style: normal; fill: rgb(255,0,0)" font-size="4px" text-anchor="middle" dominant-baseline="hanging">Wall 3</text><path d="M 13.400 251.900 H 19.400 C 19.455 251.900 19.500 251.855 19.500 251.800 V 248.900 C 19.500 248.800 19.400 248.900 19.500 248.900 H 25.300 C 25.400 248.900 25.300 248.800 25.300 248.900 V 251.800 C 25.300 251.855 25.345 251.900 25.400 251.900 H 31.400 C 31.455 251.900 31.500 251.855 31.500 251.800 V 248.900 C 31.500 248.800 31.400 248.900 31.500 248.900 H 37.300 C 37.400 248.900 37.300 248.800 37.300 248.900 V 251.800 C 37.300 251.855 37.345 251.900 37.400 251.900 H 43.400 C 43.455 251.900 43.500 251.855 43.500 251.800 V 248.900 C 43.500 248.800 43.400 248.900 43.500 248.900 H 49.300 C 49.400 248.900 49.300 248.800 49.300 248.900 V 251.800 C 49.300 251.855 49.345 251.900 49.400 251.900 H 55.400 C 55.455 251.900 55.500 251.855 55.500 251.800 V 248.900 C 55.500 248.800 55.400 248.900 55.500 248.900 H 61.300 C 61.400 248.900 61.300 248.800 61.300 248.900 V 251.800 C 61.300 251.855 61.345 251.900 61.400 251.900 H 67.400 C 67.455 251.900 67.500 251.855 67.500 251.800 V 248.900 C 67.500 248.800 67.400 248.900 67.500 248.900 H 73.300 C 73.400 248.900 73.300 248.800 73.300 248.900 V 251.800 C 73.300 251.855 73.345 251.900 73.400 251.900 H 79.400 C 79.455 251.900 79.500 251.855 79.500 251.800 V 248.900 C 79.500 248.800 79.400 248.900 79.500 248.900 H 85.300 C 85.400 248.900 85.300 248.800 85.300 248.900 V 251.800 C 85.300 251.855 85.345 251.900 85.400 251.900 H 91.400 C 91.455 251.900 91.500 251.855 91.500 251.800 V 248.900 C 91.500 248.800 91.400 248.900 91.500 248.900 H 97.300 C 97.400 248.900 97.300 248.800 97.300 248.900 V 251.800 C 97.300 251.855 97.345 251.900 97.400 251.900 H 103.400 C 103.455 251.900 103.500 251.855 103.500 251.800 V 248.900 C 103.500 248.800 103.400 248.900 103.500 248.900 H 109.300 C 109.400 248.900 109.300 248.800 109.300 248.900 V 251.800 C 109.300 251.855 109.345 251.900 109.400 251.900 H 115.400 C 115.455 251.900 115.500 251.855 115.500 251.800 V 248.900 C 115.500 248.800 115.400 248.900 115.500 248.900 H 121.300 C 121.400 248.900 121.300 248.800 121.300 248.900 V 251.800 C 121.300 251.855 121.345 251.900 121.400 251.900 H 127.400 H 130.400 C 130.455 251.900 130.500 251.855 130.500 251.800 V 248.800 V 242.800 C 130.500 242.745 130.455 242.700 130.400 242.700 H 127.500 C 127.400 242.700 127.500 242.800 127.500 242.700 V 236.900 C 127.500 236.800 127.400 236.900 127.500 236.900 H 130.400 C 130.455 236.900 130.500 236.855 130.500 236.800 V 230.800 C 130.500 230.745 130.455 230.700 130.400 230.700 H 127.500 C 127.400 230.700 127.500 230.800 127.500 230.700 V 224.900 C 127.500 224.800 127.400 224.900 127.500 224.900 H 130.400 C 130.455 224.900 130.500 224.855 130.500 224.800 V 218.800 C 130.500 218.745 130.455 218.700 130.400 218.700 H 127.500 C 127.400 218.700 127.500 218.800 127.500 218.700 V 212.900 C 127.500 212.800 127.400 212.900 127.500 212.900 H 130.400 C 130.455 212.900 130.500 212.855 130.500 212.800 V 206.800 C 130.500 206.745 130.455 206.700 130.400 206.700 H 127.500 C 127.400 206.700 127.500 206.800 127.500 206.700 V 200.900 C 127.500 200.800 127.400 200.900 127.500 200.900 H 130.400 C 130.455 200.900 130.500 200.855 130.500 200.800 V 194.800 C 130.500 194.745 130.455 194.700 130.400 194.700 H 127.500 C 127.400 194.700 127.500 194.800 127.500 194.700 V 188.900 C 127.500 188.800 127.400 188.900 127.500 188.900 H 130.400 C 130.455 188.900 130.500 188.855 130.500 188.800 V 182.800 C 130.500 182.745 130.455 182.700 130.400 182.700 H 127.500 C 127.400 182.700 127.500 182.800 127.500 182.700 V 176.900 C 127.500 176.800 127.400 176.900 127.500 176.900 H 130.400 C 130.455 176.900 130.500 176.855 130.500 176.800 V 170.800 C 130.500 170.745 130.455 170.700 130.400 170.700 H 127.500 C 127.400 170.700 127.500 170.800 127.500 170.700 V 164.900 C 127.500 164.800 127.400 164.900 127.500 164.900 H 130.400 C 130.455 164.900 130.500 164.855 130.500 164.800 V 158.800 C 130.500 158.745 130.455 158.700 130.400 158.700 H 127.500 C 127.400 158.700 127.500 158.800 127.500 158.700 V 152.900 C 127.500 152.800 127.400 152.900 127.500 152.900 H 130.400 C 130.455 152.900 130.500 152.855 130.500 152.800 V 146.800 C 130.500 146.745 130.455 146.700 130.400 146.700 H 127.500 C 127.400 146.700 127.500 146.800 127.500 146.700 V 140.900 C 127.500 140.800 127.400 140.900 127.500 140.900 H 130.400 C 130.455 140.900 130.500 140.855 130.500 140.800 V 134.800 V 131.800 C 130.500 131.745 130.455 131.700 130.400 131.700 H 127.400 H 121.400 C 121.345 131.700 121.300 131.745 121.300 131.800 V 134.700 C 121.300 134.800 121.400 134.700 121.300 134.700 H 115.500 C 115.400 134.700 115.500 134.800 115.500 134.700 V 131.800 C 115.500 131.745 115.455 131.700 115.400 131.700 H 109.400 C 109.345 131.700 109.300 131.745 109.300 131.800 V 134.700 C 109.300 134.800 109.400 134.700 109.300 134.700 H 103.500 C 103.400 134.700 103.500 134.800 103.500 134.700 V 131.800 C 103.500 131.745 103.455 131.700 103.400 131.700 H 97.400 C 97.345 131.700 97.300 131.745 97.300 131.800 V 134.700 C 97.300 134.800 97.400 134.700 97.300 134.700 H 91.500 C 91.400 134.700 91.500 134.800 91.500 134.700 V 131.800 C 91.500 131.745 91.455 131.700 91.400 131.700 H 85.400 C 85.345 131.700 85.300 131.745 85.300 131.800 V 134.700 C 85.300 134.800 85.400 134.700 85.300 134.700 H 79.500 C 79.400 134.700 79.500 134.800 79.500 134.700 V 131.800 C 79.500 131.745 79.455 131.700 79.400 131.700 H 73.400 C 73.345 131.700 73.300 131.745 73.300 131.800 V 134.700 C 73.300 134.800 73.400 134.700 73.300 134.700 H 67.500 C 67.400 134.700 67.500 134.800 67.500 134.700 V 131.800 C 67.500 131.745 67.455 131.700 67.400 131.700 H 61.400 C 61.345 131.700 61.300 131.745 61.300 131.800 V 134.700 C 61.300 134.800 61.400 134.700 61.300 134.700 H 55.500 C 55.400 134.700 55.500 134.800 55.500 134.700 V 131.800 C 55.500 131.745 55.455 131.700 55.400 131.700 H 49.400 C 49.345 131.700 49.300 131.745 49.300 131.800 V 134.700 C 49.300 134.800 49.400 134.700 49.300 134.700 H 43.500 C 43.400 134.700 43.500 134.800 43.500 134.700 V 131.800 C 43.500 131.745 43.455 131.700 43.400 131.700 H 37.400 C 37.345 131.700 37.300 131.745 37.300 131.800 V 134.700 C 37.300 134.800 37.400 134.700 37.300 134.700 H 31.500 C 31.400 134.700 31.500 134.800 31.500 134.700 V 131.800 C 31.500 131.745 31.455 131.700 31.400 131.700 H 25.400 C 25.345 131.700 25.300 131.745 25.300 131.800 V 134.700 C 25.300 134.800 25.400 134.700 25.300 134.700 H 19.500 C 19.400 134.700 19.500 134.800 19.500 134.700 V 131.800 C 19.500 131.745 19.455 131.700 19.400 131.700 H 13.400 H 10.400 C 10.345 131.700 10.300 131.745 10.300 131.800 V 134.800 V 140.800 C 10.300 140.855 10.345 140.900 10.400 140.900 H 13.300 C 13.400 140.900 13.300 140.800 13.300 140.900 V 146.700 C 13.300 146.800 13.400 146.700 13.300 146.700 H 10.400 C 10.345 146.700 10.300 146.745 10.300 146.800 V 152.800 C 10.300 152.855 10.345 152.900 10.400 152.900 H 13.300 C 13.400 152.900 13.300 152.800 13.300 152.900 V 158.700 C 13.300 158.800 13.400 158.700 13.300 158.700 H 10.400 C 10.345 158.700 10.300 158.745 10.300 158.800 V 164.800 C 10.300 164.855 10.345 164.900 10.400 164.900 H 13.300 C 13.400 164.900 13.300 164.800 13.300 164.900 V 170.700 C 13.300 170.800 13.400 170.700 13.300 170.700 H 10.400 C 10.345 170.700 10.300 170.745 10.300 170.800 V 176.800 C 10.300 176.855 10.345 176.900 10.400 176.900 H 13.300 C 13.400 176.900 13.300 176.800 13.300 176.900 V 182.700 C 13.300 182.800 13.400 182.700 13.300 182.700 H 10.400 C 10.345 182.700 10.300 182.745 10.300 182.800 V 188.800 C 10.300 188.855 10.345 188.900 10.400 188.900 H 13.300 C 13.400 188.900 13.300 188.800 13.300 188.900 V 194.700 C 13.300 194.800 13.400 194.700 13.300 194.700 H 10.400 C 10.345 194.700 10.300 194.745 10.300 194.800 V 200.800 C 10.300 200.855 10.345 200.900 10.400 200.900 H 13.300 C 13.400 200.900 13.300 200.800 13.300 200.900 V 206.700 C 13.300 206.800 13.400 206.700 13.300 206.700 H 10.400 C 10.345 206.700 10.300 206.745 10.300 206.800 V 212.800 C 10.300 212.855 10.345 212.900 10.400 212.900 H 13.300 C 13.400 212.900 13.300 212.800 13.300 212.900 V 218.700 C 13.300 218.800 13.400 218.700 13.300 218.700 H 10.400 C 10.345 218.700 10.300 218.745 10.300 218.800 V 224.800 C 10.300 224.855 10.345 224.900 10.400 224.900 H 13.300 C 13.400 224.900 13.300 224.800 13.300 224.900 V 230.700 C 13.300 230.800 13.400 230.700 13.300 230.700 H 10.400 C 10.345 230.700 10.300 230.745 10.300 230.800 V 236.800 C 10.300 236.855 10.345 236.900 10.400 236.900 H 13.300 C 13.400 236.900 13.300 236.800 13.300 236.900 V 242.700 C 13.300 242.800 13.400 242.700 13.300 242.700 H 10.400 C 10.345 242.700 10.300 242.745 10.300 242.800 V 248.800 V 251.800 C 10.300 251.855 10.345 251.900 10.400 251.900 H 13.400" stroke="rgb(0,0,0)" stroke-width="0.20" />
</g>
<g id="p-5" style="fill:none;stroke-linecap:round;stroke-linejoin:round;">
  <text transform="matrix( 1.000 0.000 0.000 1.000 70.400 68.200 )" style="font-family: sans-serif ; font-weight: normal; font-style: normal; fill: rgb(255,0,0)" font-size="4px" text-anchor="middle" dominant-baseline="hanging">Top</text><path d="M 13.400 127.200 H 19.300 C 19.400 127.200 19.300 127.100 19.300 127.200 V 130.100 C 19.300 130.155 19.345 130.200 19.400 130.200 H 25.400 C 25.455 130.200 25.500 130.155 25.500 130.100 V 127.200 C 25.500 127.100 25.400 127.200 25.500 127.200 H 31.300 C 31.400 127.200 31.300 127.100 31.300 127.200 V 130.100 C 31.300 130.155 31.345 130.200 31.400 130.200 H 37.400 C 37.455 130.200 37.500 130.155 37.500 130.100 V 127.200 C 37.500 127.100 37.400 127.200 37.500 127.200 H 43.300 C 43.400 127.200 43.300 127.100 43.300 127.200 V 130.100 C 43.300 130.155 43.345 130.200 43.400 130.200 H 49.400 C 49.455 130.200 49.500 130.155 49.500 130.100 V 127.200 C 49.500 127.100 49.400 127.200 49.500 127.200 H 55.300 C 55.400 127.200 55.300 127.100 55.300 127.200 V 130.100 C 55.300 130.155 55.345 130.200 55.400 130.200 H 61.400 C 61.455 130.200 61.500 130.155 61.500 130.100 V 127.200 C 61.500 127.100 61.400 127.200 61.500 127.200 H 67.300 C 67.400 127.200 67.300 127.100 67.300 127.200 V 130.100 C 67.300 130.155 67.345 130.200 67.400 130.200 H 73.400 C 73.455 130.200 73.500 130.155 73.500 130.100 V 127.200 C 73.500 127.100 73.400 127.200 73.500 127.200 H 79.300 C 79.400 127.200 79.300 127.100 79.300 127.200 V 130.100 C 79.300 130.155 79.345 130.200 79.400 130.200 H 85.400 C 85.455 130.200 85.500 130.155 85.500 130.100 V 127.200 C 85.500 127.100 85.400 127.200 85.500 127.200 H 91.300 C 91.400 127.200 91.300 127.100 91.300 127.200 V 130.100 C 91.300 130.155 91.345 130.200 91.400 130.200 H 97.400 C 97.455 130.200 97.500 130.155 97.500 130.100 V 127.200 C 97.500 127.100 97.400 127.200 97.500 127.200 H 103.300 C 103.400 127.200 103.300 127.100 103.300 127.200 V 130.100 C 103.300 130.155 103.345 130.200 103.400 130.200 H 109.400 C 109.455 130.200 109.500 130.155 109.500 130.100 V 127.200 C 109.500 127.100 109.400 127.200 109.500 127.200 H 115.300 C 115.400 127.200 115.300 127.100 115.300 127.200 V 130.100 C 115.300 130.155 115.345 130.200 115.400 130.200 H 121.400 C 121.455 130.200 121.500 130.155 121.500 130.100 V 127.200 C 121.500 127.100 121.400 127.200 121.500 127.200 H 127.400 C 127.455 127.200 127.500 127.155 127.500 127.100 V 121.200 C 127.500 121.100 127.400 121.200 127.500 121.200 H 130.400 C 130.455 121.200 130.500 121.155 130.500 121.100 V 115.100 C 130.500 115.045 130.455 115.000 130.400 115.000 H 127.500 C 127.400 115.000 127.500 115.100 127.500 115.000 V 109.200 C 127.500 109.100 127.400 109.200 127.500 109.200 H 130.400 C 130.455 109.200 130.500 109.155 130.500 109.100 V 103.100 C 130.500 103.045 130.455 103.000 130.400 103.000 H 127.500 C 127.400 103.000 127.500 103.100 127.500 103.000 V 97.200 C 127.500 97.100 127.400 97.200 127.500 97.200 H 130.400 C 130.455 97.200 130.500 97.155 130.500 97.100 V 91.100 C 130.500 91.045 130.455 91.000 130.400 91.000 H 127.500 C 127.400 91.000 127.500 91.100 127.500 91.000 V 85.200 C 127.500 85.100 127.400 85.200 127.500 85.200 H 130.400 C 130.455 85.200 130.500 85.155 130.500 85.100 V 79.100 C 130.500 79.045 130.455 79.000 130.400 79.000 H 127.500 C 127.400 79.000 127.500 79.100 127.500 79.000 V 73.200 C 127.500 73.100 127.400 73.200 127.500 73.200 H 130.400 C 130.455 73.200 130.500 73.155 130.500 73.100 V 67.100 C 130.500 67.045 130.455 67.000 130.400 67.000 H 127.500 C 127.400 67.000 127.500 67.100 127.500 67.000 V 61.200 C 127.500 61.100 127.400 61.200 127.500 61.200 H 130.400 C 130.455 61.200 130.500 61.155 130.500 61.100 V 55.100 C 130.500 55.045 130.455 55.000 130.400 55.000 H 127.500 C 127.400 55.000 127.500 55.100 127.500 55.000 V 49.200 C 127.500 49.100 127.400 49.200 127.500 49.200 H 130.400 C 130.455 49.200 130.500 49.155 130.500 49.100 V 43.100 C 130.500 43.045 130.455 43.000 130.400 43.000 H 127.500 C 127.400 43.000 127.500 43.100 127.500 43.000 V 37.200 C 127.500 37.100 127.400 37.200 127.500 37.200 H 130.400 C 130.455 37.200 130.500 37.155 130.500 37.100 V 31.100 C 130.500 31.045 130.455 31.000 130.400 31.000 H 127.500 C 127.400 31.000 127.500 31.100 127.500 31.000 V 25.200 C 127.500 25.100 127.400 25.200 127.500 25.200 H 130.400 C 130.455 25.200 130.500 25.155 130.500 25.100 V 19.100 C 130.500 19.045 130.455 19.000 130.400 19.000 H 127.500 C 127.400 19.000 127.500 19.100 127.500 19.000 V 13.100 C 127.500 13.045 127.455 13.000 127.400 13.000 H 121.500 C 121.400 13.000 121.500 13.100 121.500 13.000 V 10.100 C 121.500 10.045 121.455 10.000 121.400 10.000 H 115.400 C 115.345 10.000 115.300 10.045 115.300 10.100 V 13.000 C 115.300 13.100 115.400 13.000 115.300 13.000 H 109.500 C 109.400 13.000 109.500 13.100 109.500 13.000 V 10.100 C 109.500 10.045 109.455 10.000 109.400 10.000 H 103.400 C 103.345 10.000 103.300 10.045 103.300 10.100 V 13.000 C 103.300 13.100 103.400 13.000 103.300 13.000 H 97.500 C 97.400 13.000 97.500 13.100 97.500 13.000 V 10.100 C 97.500 10.045 97.455 10.000 97.400 10.000 H 91.400 C 91.345 10.000 91.300 10.045 91.300 10.100 V 13.000 C 91.300 13.100 91.400 13.000 91.300 13.000 H 85.500 C 85.400 13.000 85.500 13.100 85.500 13.000 V 10.100 C 85.500 10.045 85.455 10.000 85.400 10.000 H 79.400 C 79.345 10.000 79.300 10.045 79.300 10.100 V 13.000 C 79.300 13.100 79.400 13.000 79.300 13.000 H 73.500 C 73.400 13.000 73.500 13.100 73.500 13.000 V 10.100 C 73.500 10.045 73.455 10.000 73.400 10.000 H 67.400 C 67.345 10.000 67.300 10.045 67.300 10.100 V 13.000 C 67.300 13.100 67.400 13.000 67.300 13.000 H 61.500 C 61.400 13.000 61.500 13.100 61.500 13.000 V 10.100 C 61.500 10.045 61.455 10.000 61.400 10.000 H 55.400 C 55.345 10.000 55.300 10.045 55.300 10.100 V 13.000 C 55.300 13.100 55.400 13.000 55.300 13.000 H 49.500 C 49.400 13.000 49.500 13.100 49.500 13.000 V 10.100 C 49.500 10.045 49.455 10.000 49.400 10.000 H 43.400 C 43.345 10.000 43.300 10.045 43.300 10.100 V 13.000 C 43.300 13.100 43.400 13.000 43.300 13.000 H 37.500 C 37.400 13.000 37.500 13.100 37.500 13.000 V 10.100 C 37.500 10.045 37.455 10.000 37.400 10.000 H 31.400 C 31.345 10.000 31.300 10.045 31.300 10.100 V 13.000 C 31.300 13.100 31.400 13.000 31.300 13.000 H 25.500 C 25.400 13.000 25.500 13.100 25.500 13.000 V 10.100 C 25.500 10.045 25.455 10.000 25.400 10.000 H 19.400 C 19.345 10.000 19.300 10.045 19.300 10.100 V 13.000 C 19.300 13.100 19.400 13.000 19.300 13.000 H 13.400 C 13.345 13.000 13.300 13.045 13.300 13.100 V 19.000 C 13.300 19.100 13.400 19.000 13.300 19.000 H 10.400 C 10.345 19.000 10.300 19.045 10.300 19.100 V 25.100 C 10.300 25.155 10.345 25.200 10.400 25.200 H 13.300 C 13.400 25.200 13.300 25.100 13.300 25.200 V 31.000 C 13.300 31.100 13.400 31.000 13.300 31.000 H 10.400 C 10.345 31.000 10.300 31.045 10.300 31.100 V 37.100 C 10.300 37.155 10.345 37.200 10.400 37.200 H 13.300 C 13.400 37.200 13.300 37.100 13.300 37.200 V 43.000 C 13.300 43.100 13.400 43.000 13.300 43.000 H 10.400 C 10.345 43.000 10.300 43.045 10.300 43.100 V 49.100 C 10.300 49.155 10.345 49.200 10.400 49.200 H 13.300 C 13.400 49.200 13.300 49.100 13.300 49.200 V 55.000 C 13.300 55.100 13.400 55.000 13.300 55.000 H 10.400 C 10.345 55.000 10.300 55.045 10.300 55.100 V 61.100 C 10.300 61.155 10.345 61.200 10.400 61.200 H 13.300 C 13.400 61.200 13.300 61.100 13.300 61.200 V 67.000 C 13.300 67.100 13.400 67.000 13.300 67.000 H 10.400 C 10.345 67.000 10.300 67.045 10.300 67.100 V 73.100 C 10.300 73.155 10.345 73.200 10.400 73.200 H 13.300 C 13.400 73.200 13.300 73.100 13.300 73.200 V 79.000 C 13.300 79.100 13.400 79.000 13.300 79.000 H 10.400 C 10.345 79.000 10.300 79.045 10.300 79.100 V 85.100 C 10.300 85.155 10.345 85.200 10.400 85.200 H 13.300 C 13.400 85.200 13.300 85.100 13.300 85.200 V 91.000 C 13.300 91.100 13.400 91.000 13.300 91.000 H 10.400 C 10.345 91.000 10.300 91.045 10.300 91.100 V 97.100 C 10.300 97.155 10.345 97.200 10.400 97.200 H 13.300 C 13.400 97.200 13.300 97.100 13.300 97.200 V 103.000 C 13.300 103.100 13.400 103.000 13.300 103.000 H 10.400 C 10.345 103.000 10.300 103.045 10.300 103.100 V 109.100 C 10.300 109.155 10.345 109.200 10.400 109.200 H 13.300 C 13.400 109.200 13.300 109.100 13.300 109.200 V 115.000 C 13.300 115.100 13.400 115.000 13.300 115.000 H 10.400 C 10.345 115.000 10.300 115.045 10.300 115.100 V 121.100 C 10.300 121.155 10.345 121.200 10.400 121.200 H 13.300 C 13.400 121.200 13.300 121.100 13.300 121.200 V 127.100 C 13.300 127.155 13.345 127.200 13.400 127.200" stroke="rgb(0,0,0)" stroke-width="0.20" />
</g>
<g id="p-6" style="fill:none;stroke-linecap:round;stroke-linejoin:round;">
  <text transform="matrix( 1.000 0.000 0.000 1.000 192.100 68.200 )" style="font-family: sans-serif ; font-weight: normal; font-style: normal; fill: rgb(255,0,0)" font-size="4px" text-anchor="middle" dominant-baseline="hanging">Bottom</text><path d="M 135.100 127.200 H 141.000 C 141.100 127.200 141.000 127.100 141.000 127.200 V 130.100 C 141.000 130.155 141.045 130.200 141.100 130.200 H 147.100 C 147.155 130.200 147.200 130.155 147.200 130.100 V 127.200 C 147.200 127.100 147.100 127.200 147.200 127.200 H 153.000 C 153.100 127.200 153.000 127.100 153.000 127.200 V 130.100 C 153.000 130.155 153.045 130.200 153.100 130.200 H 159.100 C 159.155 130.200 159.200 130.155 159.200 130.100 V 127.200 C 159.200 127.100 159.100 127.200 159.200 127.200 H 165.000 C 165.100 127.200 165.000 127.100 165.000 127.200 V 130.100 C 165.000 130.155 165.045 130.200 165.100 130.200 H 171.100 C 171.155 130.200 171.200 130.155 171.200 130.100 V 127.200 C 171.200 127.100 171.100 127.200 171.200 127.200 H 177.000 C 177.100 127.200 177.000 127.100 177.000 127.200 V 130.100 C 177.000 130.155 177.045 130.200 177.100 130.200 H 183.100 C 183.155 130.200 183.200 130.155 183.200 130.100 V 127.200 C 183.200 127.100 183.100 127.200 183.200 127.200 H 189.000 C 189.100 127.200 189.000 127.100 189.000 127.200 V 130.100 C 189.000 130.155 189.045 130.200 189.100 130.200 H 195.100 C 195.155 130.200 195.200 130.155 195.200 130.100 V 127.200 C 195.200 127.100 195.100 127.200 195.200 127.200 H 201.000 C 201.100 127.200 201.000 127.100 201.000 127.200 V 130.100 C 201.000 130.155 201.045 130.200 201.100 130.200 H 207.100 C 207.155 130.200 207.200 130.155 207.200 130.100 V 127.200 C 207.200 127.100 207.100 127.200 207.200 127.200 H 213.000 C 213.100 127.200 213.000 127.100 213.000 127.200 V 130.100 C 213.000 130.155 213.045 130.200 213.100 130.200 H 219.100 C 219.155 130.200 219.200 130.155 219.200 130.100 V 127.200 C 219.200 127.100 219.100 127.200 219.200 127.200 H 225.000 C 225.100 127.200 225.000 127.100 225.000 127.200 V 130.100 C 225.000 130.155 225.045 130.200 225.100 130.200 H 231.100 C 231.155 130.200 231.200 130.155 231.200 130.100 V 127.200 C 231.200 127.100 231.100 127.200 231.200 127.200 H 237.000 C 237.100 127.200 237.000 127.100 237.000 127.200 V 130.100 C 237.000 130.155 237.045 130.200 237.100 130.200 H 243.100 C 243.155 130.200 243.200 130.155 243.200 130.100 V 127.200 C 243.200 127.100 243.100 127.200 243.200 127.200 H 249.100 C 249.155 127.200 249.200 127.155 249.200 127.100 V 121.200 C 249.200 121.100 249.100 121.200 249.200 121.200 H 252.100 C 252.155 121.200 252.200 121.155 252.200 121.100 V 115.100 C 252.200 115.045 252.155 115.000 252.100 115.000 H 249.200 C 249.100 115.000 249.200 115.100 249.200 115.000 V 109.200 C 249.200 109.100 249.100 109.200 249.200 109.200 H 252.100 C 252.155 109.200 252.200 109.155 252.200 109.100 V 103.100 C 252.200 103.045 252.155 103.000 252.100 103.000 H 249.200 C 249.100 103.000 249.200 103.100 249.200 103.000 V 97.200 C 249.200 97.100 249.100 97.200 249.200 97.200 H 252.100 C 252.155 97.200 252.200 97.155 252.200 97.100 V 91.100 C 252.200 91.045 252.155 91.000 252.100 91.000 H 249.200 C 249.100 91.000 249.200 91.100 249.200 91.000 V 85.200 C 249.200 85.100 249.100 85.200 249.200 85.200 H 252.100 C 252.155 85.200 252.200 85.155 252.200 85.100 V 79.100 C 252.200 79.045 252.155 79.000 252.100 79.000 H 249.200 C 249.100 79.000 249.200 79.100 249.200 79.000 V 73.200 C 249.200 73.100 249.100 73.200 249.200 73.200 H 252.100 C 252.155 73.200 252.200 73.155 252.200 73.100 V 67.100 C 252.200 67.045 252.155 67.000 252.100 67.000 H 249.200 C 249.100 67.000 249.200 67.100 249.200 67.000 V 61.200 C 249.200 61.100 249.100 61.200 249.200 61.200 H 252.100 C 252.155 61.200 252.200 61.155 252.200 61.100 V 55.100 C 252.200 55.045 252.155 55.000 252.100 55.000 H 249.200 C 249.100 55.000 249.200 55.100 249.200 55.000 V 49.200 C 249.200 49.100 249.100 49.200 249.200 49.200 H 252.100 C 252.155 49.200 252.200 49.155 252.200 49.100 V 43.100 C 252.200 43.045 252.155 43.000 252.100 43.000 H 249.200 C 249.100 43.000 249.200 43.100 249.200 43.000 V 37.200 C 249.200 37.100 249.100 37.200 249.200 37.200 H 252.100 C 252.155 37.200 252.200 37.155 252.200 37.100 V 31.100 C 252.200 31.045 252.155 31.000 252.100 31.000 H 249.200 C 249.100 31.000 249.200 31.100 249.200 31.000 V 25.200 C 249.200 25.100 249.100 25.200 249.200 25.200 H 252.100 C 252.155 25.200 252.200 25.155 252.200 25.100 V 19.100 C 252.200 19.045 252.155 19.000 252.100 19.000 H 249.200 C 249.100 19.000 249.200 19.100 249.200 19.000 V 13.100 C 249.200 13.045 249.155 13.000 249.100 13.000 H 243.200 C 243.100 13.000 243.200 13.100 243.200 13.000 V 10.100 C 243.200 10.045 243.155 10.000 243.100 10.000 H 237.100 C 237.045 10.000 237.000 10.045 237.000 10.100 V 13.000 C 237.000 13.100 237.100 13.000 237.000 13.000 H 231.200 C 231.100 13.000 231.200 13.100 231.200 13.000 V 10.100 C 231.200 10.045 231.155 10.000 231.100 10.000 H 225.100 C 225.045 10.000 225.000 10.045 225.000 10.100 V 13.000 C 225.000 13.100 225.100 13.000 225.000 13.000 H 219.200 C 219.100 13.000 219.200 13.100 219.200 13.000 V 10.100 C 219.200 10.045 219.155 10.000 219.100 10.000 H 213.100 C 213.045 10.000 213.000 10.045 213.000 10.100 V 13.000 C 213.000 13.100 213.100 13.000 213.000 13.000 H 207.200 C 207.100 13.000 207.200 13.100 207.200 13.000 V 10.100 C 207.200 10.045 207.155 10.000 207.100 10.000 H 201.100 C 201.045 10.000 201.000 10.045 201.000 10.100 V 13.000 C 201.000 13.100 201.100 13.000 201.000 13.000 H 195.200 C 195.100 13.000 195.200 13.100 195.200 13.000 V 10.100 C 195.200 10.045 195.155 10.000 195.100 10.000 H 189.100 C 189.045 10.000 189.000 10.045 189.000 10.100 V 13.000 C 189.000 13.100 189.100 13.000 189.000 13.000 H 183.200 C 183.100 13.000 183.200 13.100 183.200 13.000 V 10.100 C 183.200 10.045 183.155 10.000 183.100 10.000 H 177.100 C 177.045 10.000 177.000 10.045 177.000 10.100 V 13.000 C 177.000 13.100 177.100 13.000 177.000 13.000 H 171.200 C 171.100 13.000 171.200 13.100 171.200 13.000 V 10.100 C 171.200 10.045 171.155 10.000 171.100 10.000 H 165.100 C 165.045 10.000 165.000 10.045 165.000 10.100 V 13.000 C 165.000 13.100 165.100 13.000 165.000 13.000 H 159.200 C 159.100 13.000 159.200 13.100 159.200 13.000 V 10.100 C 159.200 10.045 159.155 10.000 159.100 10.000 H 153.100 C 153.045 10.000 153.000 10.045 153.000 10.100 V 13.000 C 153.000 13.100 153.100 13.000 153.000 13.000 H 147.200 C 147.100 13.000 147.200 13.100 147.200 13.000 V 10.100 C 147.200 10.045 147.155 10.000 147.100 10.000 H 141.100 C 141.045 10.000 141.000 10.045 141.000 10.100 V 13.000 C 141.000 13.100 141.100 13.000 141.000 13.000 H 135.100 C 135.045 13.000 135.000 13.045 135.000 13.100 V 19.000 C 135.000 19.100 135.100 19.000 135.000 19.000 H 132.100 C 132.045 19.000 132.000 19.045 132.000 19.100 V 25.100 C 132.000 25.155 132.045 25.200 132.100 25.200 H 135.000 C 135.100 25.200 135.000 25.100 135.000 25.200 V 31.000 C 135.000 31.100 135.100 31.000 135.000 31.000 H 132.100 C 132.045 31.000 132.000 31.045 132.000 31.100 V 37.100 C 132.000 37.155 132.045 37.200 132.100 37.200 H 135.000 C 135.100 37.200 135.000 37.100 135.000 37.200 V 43.000 C 135.000 43.100 135.100 43.000 135.000 43.000 H 132.100 C 132.045 43.000 132.000 43.045 132.000 43.100 V 49.100 C 132.000 49.155 132.045 49.200 132.100 49.200 H 135.000 C 135.100 49.200 135.000 49.100 135.000 49.200 V 55.000 C 135.000 55.100 135.100 55.000 135.000 55.000 H 132.100 C 132.045 55.000 132.000 55.045 132.000 55.100 V 61.100 C 132.000 61.155 132.045 61.200 132.100 61.200 H 135.000 C 135.100 61.200 135.000 61.100 135.000 61.200 V 67.000 C 135.000 67.100 135.100 67.000 135.000 67.000 H 132.100 C 132.045 67.000 132.000 67.045 132.000 67.100 V 73.100 C 132.000 73.155 132.045 73.200 132.100 73.200 H 135.000 C 135.100 73.200 135.000 73.100 135.000 73.200 V 79.000 C 135.000 79.100 135.100 79.000 135.000 79.000 H 132.100 C 132.045 79.000 132.000 79.045 132.000 79.100 V 85.100 C 132.000 85.155 132.045 85.200 132.100 85.200 H 135.000 C 135.100 85.200 135.000 85.100 135.000 85.200 V 91.000 C 135.000 91.100 135.100 91.000 135.000 91.000 H 132.100 C 132.045 91.000 132.000 91.045 132.000 91.100 V 97.100 C 132.000 97.155 132.045 97.200 132.100 97.200 H 135.000 C 135.100 97.200 135.000 97.100 135.000 97.200 V 103.000 C 135.000 103.100 135.100 103.000 135.000 103.000 H 132.100 C 132.045 103.000 132.000 103.045 132.000 103.100 V 109.100 C 132.000 109.155 132.045 109.200 132.100 109.200 H 135.000 C 135.100 109.200 135.000 109.100 135.000 109.200 V 115.000 C 135.000 115.100 135.100 115.000 135.000 115.000 H 132.100 C 132.045 115.000 132.000 115.045 132.000 115.100 V 121.100 C 132.000 121.155 132.045 121.200 132.100 121.200 H 135.000 C 135.100 121.200 135.000 121.100 135.000 121.200 V 127.100 C 135.000 127.155 135.045 127.200 135.100 127.200" stroke="rgb(0,0,0)" stroke-width="0.20" />
</g>
</svg>