solid OpenSCAD_Model
  facet normal -0 0 1
    outer loop
      vertex -22 25 1.5
      vertex 24 -25 1.5
      vertex 24 25 1.5
    endloop
  endfacet
  facet normal 0 0 1
    outer loop
      vertex 24 -25 1.5
      vertex -22 25 1.5
      vertex -22 -25 1.5
    endloop
  endfacet
  facet normal 1 -0 0
    outer loop
      vertex 24 -25 1.5
      vertex 24 25 -1.5
      vertex 24 25 1.5
    endloop
  endfacet
  facet normal 1 0 0
    outer loop
      vertex 24 25 -1.5
      vertex 24 -25 1.5
      vertex 24 -25 -1.5
    endloop
  endfacet
  facet normal 0 1 0
    outer loop
      vertex 24 25 1.5
      vertex 24 25 -1.5
      vertex -22 25 1.5
    endloop
  endfacet
  facet normal 0 1 -0
    outer loop
      vertex -22 25 1.5
      vertex -46 25 2.5
      vertex -22 25 2.5
    endloop
  endfacet
  facet normal 0 1 0
    outer loop
      vertex -46 25 -1.5
      vertex -22 25 1.5
      vertex 24 25 -1.5
    endloop
  endfacet
  facet normal 0 1 0
    outer loop
      vertex -22 25 1.5
      vertex -46 25 -1.5
      vertex -46 25 2.5
    endloop
  endfacet
  facet normal 0 0 -1
    outer loop
      vertex -46 -25 -1.5
      vertex 24 25 -1.5
      vertex 24 -25 -1.5
    endloop
  endfacet
  facet normal -0 0 -1
    outer loop
      vertex 24 25 -1.5
      vertex -46 -25 -1.5
      vertex -46 25 -1.5
    endloop
  endfacet
  facet normal 0 -1 0
    outer loop
      vertex -46 -25 2.5
      vertex -22 -25 1.5
      vertex -22 -25 2.5
    endloop
  endfacet
  facet normal 0 -1 0
    outer loop
      vertex -46 -25 -1.5
      vertex -22 -25 1.5
      vertex -46 -25 2.5
    endloop
  endfacet
  facet normal 0 -1 0
    outer loop
      vertex 24 -25 -1.5
      vertex -22 -25 1.5
      vertex -46 -25 -1.5
    endloop
  endfacet
  facet normal 0 -1 0
    outer loop
      vertex -22 -25 1.5
      vertex 24 -25 -1.5
      vertex 24 -25 1.5
    endloop
  endfacet
  facet normal -1 0 0
    outer loop
      vertex -46 -25 -1.5
      vertex -46 25 2.5
      vertex -46 25 -1.5
    endloop
  endfacet
  facet normal -1 -0 0
    outer loop
      vertex -46 25 2.5
      vertex -46 -25 -1.5
      vertex -46 -25 2.5
    endloop
  endfacet
  facet normal -0 0 1
    outer loop
      vertex -46 25 2.5
      vertex -22 -25 2.5
      vertex -22 25 2.5
    endloop
  endfacet
  facet normal 0 0 1
    outer loop
      vertex -22 -25 2.5
      vertex -46 25 2.5
      vertex -46 -25 2.5
    endloop
  endfacet
  facet normal 1 -0 0
    outer loop
      vertex -22 -25 2.5
      vertex -22 25 1.5
      vertex -22 25 2.5
    endloop
  endfacet
  facet normal 1 0 0
    outer loop
      vertex -22 25 1.5
      vertex -22 -25 2.5
      vertex -22 -25 1.5
    endloop
  endfacet
endsolid OpenSCAD_Model
