solid OpenSCAD_Model
  facet normal -1 0 0
    outer loop
      vertex -45 -25 -2.5
      vertex -45 25 2.5
      vertex -45 25 -2.5
    endloop
  endfacet
  facet normal -1 -0 0
    outer loop
      vertex -45 25 2.5
      vertex -45 -25 -2.5
      vertex -45 -25 2.5
    endloop
  endfacet
  facet normal 0 0 1
    outer loop
      vertex 45 25 2.5
      vertex 37.1 14.25 2.5
      vertex 45 14.25 2.5
    endloop
  endfacet
  facet normal 0 0 1
    outer loop
      vertex 37.1 14.25 2.5
      vertex -45 25 2.5
      vertex 37.1 -13.75 2.5
    endloop
  endfacet
  facet normal -0 0 1
    outer loop
      vertex -45 25 2.5
      vertex 37.1 14.25 2.5
      vertex 45 25 2.5
    endloop
  endfacet
  facet normal -0 0 1
    outer loop
      vertex 37.1 -13.75 2.5
      vertex 45 -25 2.5
      vertex 45 -13.75 2.5
    endloop
  endfacet
  facet normal 0 0 1
    outer loop
      vertex -45 -25 2.5
      vertex 37.1 -13.75 2.5
      vertex -45 25 2.5
    endloop
  endfacet
  facet normal 0 0 1
    outer loop
      vertex 37.1 -13.75 2.5
      vertex -45 -25 2.5
      vertex 45 -25 2.5
    endloop
  endfacet
  facet normal 1 0 0
    outer loop
      vertex 45 -13.75 2.5
      vertex 45 -20.25 0.65
      vertex 45 -13.75 0.65
    endloop
  endfacet
  facet normal 1 -0 0
    outer loop
      vertex 45 -25 2.5
      vertex 45 -20.25 0.65
      vertex 45 -13.75 2.5
    endloop
  endfacet
  facet normal 1 0 0
    outer loop
      vertex 45 -25 -2.5
      vertex 45 -20.25 0.65
      vertex 45 -25 2.5
    endloop
  endfacet
  facet normal 1 0 0
    outer loop
      vertex 45 -20.25 0.65
      vertex 45 -25 -2.5
      vertex 45 -20.25 -2.5
    endloop
  endfacet
  facet normal 1 0 0
    outer loop
      vertex 45 25 2.5
      vertex 45 20.75 0.65
      vertex 45 25 -2.5
    endloop
  endfacet
  facet normal 1 -0 0
    outer loop
      vertex 45 14.25 2.5
      vertex 45 20.75 0.65
      vertex 45 25 2.5
    endloop
  endfacet
  facet normal 1 0 0
    outer loop
      vertex 45 20.75 0.65
      vertex 45 14.25 2.5
      vertex 45 14.25 0.65
    endloop
  endfacet
  facet normal 1 0 0
    outer loop
      vertex 45 25 -2.5
      vertex 45 20.75 0.65
      vertex 45 20.75 -2.5
    endloop
  endfacet
  facet normal 0 1 -0
    outer loop
      vertex 45 25 -2.5
      vertex -45 25 2.5
      vertex 45 25 2.5
    endloop
  endfacet
  facet normal 0 1 0
    outer loop
      vertex -45 25 2.5
      vertex 45 25 -2.5
      vertex -45 25 -2.5
    endloop
  endfacet
  facet normal 0 0 -1
    outer loop
      vertex 45 -25 -2.5
      vertex -16.5 -20.25 -2.5
      vertex 45 -20.25 -2.5
    endloop
  endfacet
  facet normal 0 0 -1
    outer loop
      vertex -45 25 -2.5
      vertex -16.5 -20.25 -2.5
      vertex -45 -25 -2.5
    endloop
  endfacet
  facet normal 0 0 -1
    outer loop
      vertex -45 -25 -2.5
      vertex -16.5 -20.25 -2.5
      vertex 45 -25 -2.5
    endloop
  endfacet
  facet normal 0 0 -1
    outer loop
      vertex -16.5 20.75 -2.5
      vertex 45 25 -2.5
      vertex 45 20.75 -2.5
    endloop
  endfacet
  facet normal 0 0 -1
    outer loop
      vertex -16.5 20.75 -2.5
      vertex -45 25 -2.5
      vertex 45 25 -2.5
    endloop
  endfacet
  facet normal 0 0 -1
    outer loop
      vertex -16.5 -20.25 -2.5
      vertex -45 25 -2.5
      vertex -16.5 20.75 -2.5
    endloop
  endfacet
  facet normal 0 -1 0
    outer loop
      vertex -45 -25 -2.5
      vertex 45 -25 2.5
      vertex -45 -25 2.5
    endloop
  endfacet
  facet normal 0 -1 -0
    outer loop
      vertex 45 -25 2.5
      vertex -45 -25 -2.5
      vertex 45 -25 -2.5
    endloop
  endfacet
  facet normal 1 -0 0
    outer loop
      vertex -16.5 -20.25 0.65
      vertex -16.5 20.75 -2.5
      vertex -16.5 20.75 0.65
    endloop
  endfacet
  facet normal 1 0 0
    outer loop
      vertex -16.5 20.75 -2.5
      vertex -16.5 -20.25 0.65
      vertex -16.5 -20.25 -2.5
    endloop
  endfacet
  facet normal 0 0 -1
    outer loop
      vertex 45 -20.25 0.65
      vertex 37.1 -13.75 0.65
      vertex 45 -13.75 0.65
    endloop
  endfacet
  facet normal -0 0 -1
    outer loop
      vertex 37.1 -13.75 0.65
      vertex -16.5 -20.25 0.65
      vertex 37.1 14.25 0.65
    endloop
  endfacet
  facet normal 0 0 -1
    outer loop
      vertex -16.5 -20.25 0.65
      vertex 37.1 -13.75 0.65
      vertex 45 -20.25 0.65
    endloop
  endfacet
  facet normal 0 0 -1
    outer loop
      vertex 37.1 14.25 0.65
      vertex 45 20.75 0.65
      vertex 45 14.25 0.65
    endloop
  endfacet
  facet normal 0 0 -1
    outer loop
      vertex -16.5 20.75 0.65
      vertex 37.1 14.25 0.65
      vertex -16.5 -20.25 0.65
    endloop
  endfacet
  facet normal 0 0 -1
    outer loop
      vertex 37.1 14.25 0.65
      vertex -16.5 20.75 0.65
      vertex 45 20.75 0.65
    endloop
  endfacet
  facet normal 0 -1 0
    outer loop
      vertex -16.5 20.75 -2.5
      vertex 45 20.75 0.65
      vertex -16.5 20.75 0.65
    endloop
  endfacet
  facet normal 0 -1 -0
    outer loop
      vertex 45 20.75 0.65
      vertex -16.5 20.75 -2.5
      vertex 45 20.75 -2.5
    endloop
  endfacet
  facet normal 0 1 -0
    outer loop
      vertex 45 -20.25 -2.5
      vertex -16.5 -20.25 0.65
      vertex 45 -20.25 0.65
    endloop
  endfacet
  facet normal 0 1 0
    outer loop
      vertex -16.5 -20.25 0.65
      vertex 45 -20.25 -2.5
      vertex -16.5 -20.25 -2.5
    endloop
  endfacet
  facet normal 1 -0 0
    outer loop
      vertex 37.1 -13.75 2.5
      vertex 37.1 14.25 0.65
      vertex 37.1 14.25 2.5
    endloop
  endfacet
  facet normal 1 0 0
    outer loop
      vertex 37.1 14.25 0.65
      vertex 37.1 -13.75 2.5
      vertex 37.1 -13.75 0.65
    endloop
  endfacet
  facet normal 0 -1 0
    outer loop
      vertex 37.1 14.25 0.65
      vertex 45 14.25 2.5
      vertex 37.1 14.25 2.5
    endloop
  endfacet
  facet normal 0 -1 -0
    outer loop
      vertex 45 14.25 2.5
      vertex 37.1 14.25 0.65
      vertex 45 14.25 0.65
    endloop
  endfacet
  facet normal 0 1 -0
    outer loop
      vertex 45 -13.75 0.65
      vertex 37.1 -13.75 2.5
      vertex 45 -13.75 2.5
    endloop
  endfacet
  facet normal 0 1 0
    outer loop
      vertex 37.1 -13.75 2.5
      vertex 45 -13.75 0.65
      vertex 37.1 -13.75 0.65
    endloop
  endfacet
endsolid OpenSCAD_Model
